<?xml version="1.0" encoding="UTF-8" standalone="no"?>
<!-- Created with Inkscape (http://www.inkscape.org/) -->

<svg
   xmlns:dc="http://purl.org/dc/elements/1.1/"
   xmlns:cc="http://creativecommons.org/ns#"
   xmlns:rdf="http://www.w3.org/1999/02/22-rdf-syntax-ns#"
   xmlns:svg="http://www.w3.org/2000/svg"
   xmlns="http://www.w3.org/2000/svg"
   xmlns:sodipodi="http://sodipodi.sourceforge.net/DTD/sodipodi-0.dtd"
   xmlns:inkscape="http://www.inkscape.org/namespaces/inkscape"
   width="505.66028"
   height="460.06842"
   viewBox="0 0 133.78928 121.72644"
   version="1.1"
   id="svg8"
   inkscape:version="0.92.5 (2060ec1f9f, 2020-04-08)"
   sodipodi:docname="logo.svg">
  <defs
     id="defs2" />
  <sodipodi:namedview
     id="base"
     pagecolor="#ffffff"
     bordercolor="#666666"
     borderopacity="1.0"
     inkscape:pageopacity="0.0"
     inkscape:pageshadow="2"
     inkscape:zoom="0.7"
     inkscape:cx="-141.42655"
     inkscape:cy="351.4255"
     inkscape:document-units="mm"
     inkscape:current-layer="layer1"
     showgrid="false"
     units="px"
     fit-margin-top="10"
     fit-margin-left="10"
     fit-margin-right="10"
     fit-margin-bottom="10"
     inkscape:window-width="1920"
     inkscape:window-height="1009"
     inkscape:window-x="0"
     inkscape:window-y="40"
     inkscape:window-maximized="1" />
  <metadata
     id="metadata5">
    <rdf:RDF>
      <cc:Work
         rdf:about="">
        <dc:format>image/svg+xml</dc:format>
        <dc:type
           rdf:resource="http://purl.org/dc/dcmitype/StillImage" />
        <dc:title />
      </cc:Work>
    </rdf:RDF>
  </metadata>
  <g
     inkscape:label="Calque 1"
     inkscape:groupmode="layer"
     id="layer1"
     transform="translate(-51.033952,-74.362987)">
    <path
       inkscape:connector-curvature="0"
       style="fill:#fb8b2b;fill-opacity:1;stroke:none;stroke-width:25.34761047;stroke-miterlimit:4;stroke-dasharray:none;stroke-opacity:1"
       d="M 67.553381,77.009349 A 77.080527,77.080527 0 0 0 53.680843,92.731394 c 7.085404,28.887266 33.22477,50.422756 64.247247,50.422756 h 5.3e-4 5.2e-4 c 15.80466,0 29.85584,7.21328 39.06067,18.53997 H 67.639165 v 15.875 h 98.040525 c 1.64608,4.98596 2.53887,10.32121 2.53887,15.87394 v 0 h 0.0858 a 77.080527,77.080527 0 0 0 13.87202,-15.72205 c -7.0854,-28.88673 -33.22477,-50.42223 -64.24724,-50.42223 h -5.3e-4 -5.3e-4 c -15.80414,0 -29.854283,-7.21341 -39.059113,-18.53943 h 52.822643 c 7.3608,-3.1559 13.37563,-8.791073 17.01291,-15.875 H 70.178027 C 68.531848,87.898224 67.638649,82.562795 67.638649,77.009852 v 0 z"
       id="path875" />
    <path
       inkscape:connector-curvature="0"
       style="color:#000000;font-style:normal;font-variant:normal;font-weight:normal;font-stretch:normal;font-size:medium;line-height:normal;font-family:sans-serif;font-variant-ligatures:normal;font-variant-position:normal;font-variant-caps:normal;font-variant-numeric:normal;font-variant-alternates:normal;font-feature-settings:normal;text-indent:0;text-align:start;text-decoration:none;text-decoration-line:none;text-decoration-style:solid;text-decoration-color:#000000;letter-spacing:normal;word-spacing:normal;text-transform:none;writing-mode:lr-tb;direction:ltr;text-orientation:mixed;dominant-baseline:auto;baseline-shift:baseline;text-anchor:start;white-space:normal;shape-padding:0;clip-rule:nonzero;display:inline;overflow:visible;visibility:visible;opacity:1;isolation:auto;mix-blend-mode:normal;color-interpolation:sRGB;color-interpolation-filters:linearRGB;solid-color:#000000;solid-opacity:1;vector-effect:none;fill:#dadadb;fill-opacity:1;fill-rule:nonzero;stroke:none;stroke-width:15.85692501;stroke-linecap:butt;stroke-linejoin:miter;stroke-miterlimit:4;stroke-dasharray:none;stroke-dashoffset:0;stroke-opacity:1;color-rendering:auto;image-rendering:auto;shape-rendering:auto;text-rendering:auto;enable-background:accumulate"
       d="m 168.21804,77.00882 v 0 c 0,27.86772 -22.42121,50.28943 -50.28892,50.28943 h -5.3e-4 -5.3e-4 c -31.024852,0 -57.165374,21.53923 -64.248275,50.43001 a 77.080527,77.080527 0 0 0 13.801225,15.71533 h 0.158131 v 0 c 0,-27.86772 22.421221,-50.28944 50.288919,-50.28944 h 5.3e-4 5.3e-4 c 31.02485,0 57.16536,-21.53928 64.24828,-50.430006 A 77.080527,77.080527 0 0 0 168.37669,77.00882 Z"
       id="path877" />
  </g>
</svg>
